# xmcd CD database file
# Copyright (C) 1997 Ti Kan
# 
# Track frame offsets:
#     150
#     22205
#     45342
#     68842
#     86200
#     102202
#     118960
#     137990
#     154282
# 
# Disc length: 2247 seconds
# 
# Revision: 1
# Processed by: cddbd v1.4b41PL1 Copyright (c) Steve Scherf et al.
# Submitted via: DiscPlay 4.0.3
# 
DISCID=8008c509
DTITLE=Paul Butterfield - Better days
DYEAR=1900
DGENRE=
TTITLE0=New walkin' blues
TTITLE1=Please send me someone to love
TTITLE2=Broke my baby's heart
TTITLE3=Done a lot of wrong things
TTITLE4=Baby please don't go
TTITLE5=Buried alive in the blues
TTITLE6=Rule the road
TTITLE7=Nobody fault but mine
TTITLE8=Highway
EXTD=
EXTT0=
EXTT1=
EXTT2=
EXTT3=
EXTT4=
EXTT5=
EXTT6=
EXTT7=
EXTT8=
PLAYORDER=
